<svg width="34" height="36" viewBox="0 0 34 36" fill="none" xmlns="http://www.w3.org/2000/svg">
<path d="M27.6207 3.6C27.6207 3.03333 27.454 2.53333 27.1207 2.1C26.7874 1.63333 26.3374 1.31666 25.7707 1.15L23.4207 0.449998V-2.38419e-06H33.6707V0.449998L31.2707 1.15C30.704 1.31666 30.254 1.63333 29.9207 2.1C29.5874 2.56666 29.4207 3.08333 29.4207 3.65V35.5H28.0207L6.3707 4.9V31.4C6.3707 31.9667 6.53737 32.4833 6.8707 32.95C7.20404 33.3833 7.65404 33.6833 8.2207 33.85L10.5707 34.55V35H0.320703V34.55L2.7207 33.85C3.28737 33.6833 3.73737 33.3667 4.0707 32.9C4.40404 32.4333 4.5707 31.9167 4.5707 31.35V3.55C4.5707 2.91667 4.38737 2.38333 4.0207 1.95C3.65404 1.48333 3.1707 1.16667 2.5707 1L0.320703 0.449998V-2.38419e-06H9.5707L27.6207 25.6V3.6Z" fill="black"/>
</svg>
