<svg width="259" height="58" viewBox="0 0 259 58" fill="none" xmlns="http://www.w3.org/2000/svg">
<path d="M42.408 44.964C43.072 44.964 43.648 45.104 44.136 45.384L43.968 46.212L43.86 46.248C43.66 46.08 43.428 45.948 43.164 45.852C42.9 45.756 42.616 45.708 42.312 45.708C41.72 45.708 41.268 45.9 40.956 46.284C40.644 46.66 40.488 47.224 40.488 47.976C40.488 48.736 40.644 49.316 40.956 49.716C41.268 50.116 41.72 50.316 42.312 50.316C42.6 50.316 42.888 50.268 43.176 50.172C43.472 50.068 43.736 49.932 43.968 49.764L44.076 49.8L43.992 50.628C43.448 50.924 42.876 51.072 42.276 51.072C41.396 51.072 40.72 50.812 40.248 50.292C39.776 49.764 39.54 49.016 39.54 48.048C39.54 47.064 39.788 46.304 40.284 45.768C40.788 45.232 41.496 44.964 42.408 44.964ZM50.9873 51H50.0873L49.9433 50.352L49.6313 49.464L48.2033 49.452L46.9313 49.464L46.6073 50.304L46.4393 51H45.5513L47.8553 45.024H48.8873L50.9873 51ZM49.3793 48.732L48.3833 45.9H48.3113L47.2193 48.732L48.2753 48.744L49.3793 48.732ZM56.4079 50.328L56.3479 51H53.1679L53.2039 49.2L53.1679 45.024H54.0679L54.0319 49.128L54.0559 50.244H56.3599L56.4079 50.328ZM64.7953 51H63.9913L63.8593 49.176L63.5353 46.416H63.4633L61.7473 50.328H61.0393L59.4193 46.416H59.3473L59.0353 49.104L58.8673 51H58.0993L58.7593 45.024H59.8033L60.1033 45.924L61.4113 49.14H61.4833L62.8513 45.876L63.1633 45.024H64.1833L64.7953 51ZM72.8552 47.892C73.7432 48.068 74.1872 48.54 74.1872 49.308C74.1872 49.884 73.9632 50.316 73.5152 50.604C73.0672 50.892 72.4112 51.036 71.5472 51.036C71.0272 51.036 70.5272 51.024 70.0472 51L70.0832 49.2L70.0472 45.024L71.9192 45.012C72.5192 45.012 72.9832 45.14 73.3112 45.396C73.6472 45.644 73.8152 46 73.8152 46.464C73.8152 46.808 73.7312 47.1 73.5632 47.34C73.3952 47.58 73.1592 47.764 72.8552 47.892ZM72.8672 46.572C72.8672 46.276 72.7712 46.06 72.5792 45.924C72.3872 45.788 72.0792 45.72 71.6552 45.72H70.9232L70.9112 47.568L71.9792 47.604C72.2752 47.54 72.4952 47.428 72.6392 47.268C72.7912 47.1 72.8672 46.868 72.8672 46.572ZM71.6552 50.352C72.1752 50.352 72.5712 50.264 72.8432 50.088C73.1232 49.904 73.2632 49.636 73.2632 49.284C73.2632 48.996 73.1672 48.772 72.9752 48.612C72.7832 48.452 72.4912 48.344 72.0992 48.288L70.9112 48.3L70.8992 49.128L70.9232 50.316C71.1712 50.34 71.4152 50.352 71.6552 50.352ZM80.1925 50.232L80.2645 50.304L80.1805 51H76.5445L76.5805 49.2L76.5445 45.024H80.2045L80.2645 45.096L80.1925 45.792L78.6805 45.744L77.4325 45.756L77.4205 47.568L78.6085 47.58L79.6525 47.544L79.7125 47.628L79.6405 48.336L78.5365 48.3L77.4205 48.312L77.4085 49.128L77.4205 50.268L78.5965 50.28L80.1925 50.232ZM83.3074 45.756L83.2954 47.724L84.3274 47.736L85.3834 47.7L85.4434 47.784L85.3834 48.468L84.2434 48.456L83.2834 48.468V49.128L83.3074 51H82.4194L82.4434 49.2L82.4194 45.024H85.8994L85.9474 45.096L85.8754 45.792L84.3994 45.744L83.3074 45.756ZM90.1803 44.952C91.0523 44.952 91.7203 45.208 92.1843 45.72C92.6563 46.232 92.8923 46.956 92.8923 47.892C92.8923 48.908 92.6403 49.696 92.1363 50.256C91.6403 50.808 90.9283 51.084 90.0003 51.084C89.1363 51.084 88.4683 50.824 87.9963 50.304C87.5243 49.776 87.2883 49.028 87.2883 48.06C87.2883 47.068 87.5403 46.304 88.0443 45.768C88.5483 45.224 89.2603 44.952 90.1803 44.952ZM90.0963 45.708C89.4643 45.708 88.9923 45.888 88.6803 46.248C88.3763 46.608 88.2243 47.176 88.2243 47.952C88.2243 48.784 88.3763 49.388 88.6803 49.764C88.9843 50.14 89.4483 50.328 90.0723 50.328C90.7123 50.328 91.1883 50.144 91.5003 49.776C91.8123 49.408 91.9683 48.832 91.9683 48.048C91.9683 47.24 91.8123 46.648 91.5003 46.272C91.1963 45.896 90.7283 45.708 90.0963 45.708ZM97.976 48.588C98.464 49.332 99.004 50.064 99.596 50.784L99.584 50.904C99.248 51.008 98.972 51.068 98.756 51.084L98.6 50.988C97.992 50.068 97.532 49.344 97.22 48.816L96.092 48.828V49.128L96.116 51H95.228L95.264 49.2L95.228 45.024L97.268 45.012C97.9 45.012 98.384 45.16 98.72 45.456C99.064 45.752 99.236 46.18 99.236 46.74C99.236 47.148 99.124 47.512 98.9 47.832C98.684 48.152 98.376 48.404 97.976 48.588ZM96.104 48.084L97.232 48.12C97.944 47.92 98.3 47.484 98.3 46.812C98.3 46.46 98.196 46.196 97.988 46.02C97.78 45.844 97.464 45.748 97.04 45.732L96.116 45.744L96.104 48.084ZM105.549 50.232L105.621 50.304L105.537 51H101.901L101.937 49.2L101.901 45.024H105.561L105.621 45.096L105.549 45.792L104.037 45.744L102.789 45.756L102.777 47.568L103.965 47.58L105.009 47.544L105.069 47.628L104.997 48.336L103.893 48.3L102.777 48.312L102.765 49.128L102.777 50.268L103.953 50.28L105.549 50.232ZM114.316 45.096L114.256 45.852L113.14 45.768H112.54L112.504 49.128L112.54 51H111.64L111.676 49.2L111.652 45.768H111.052L109.912 45.852L109.84 45.768L109.912 45.024H114.268L114.316 45.096ZM121.463 49.128L121.487 51H120.599L120.635 49.2L120.623 48.384L117.371 48.396L117.359 49.128L117.383 51H116.495L116.531 49.2L116.495 45.024H117.395L117.371 47.592L118.991 47.604L120.623 47.592L120.599 45.024H121.499L121.463 49.128ZM128.011 50.232L128.083 50.304L127.999 51H124.363L124.399 49.2L124.363 45.024H128.023L128.083 45.096L128.011 45.792L126.499 45.744L125.251 45.756L125.239 47.568L126.427 47.58L127.471 47.544L127.531 47.628L127.459 48.336L126.355 48.3L125.239 48.312L125.227 49.128L125.239 50.268L126.415 50.28L128.011 50.232ZM134.762 44.964C135.25 44.964 135.738 45.06 136.226 45.252L136.07 46.14L135.926 46.176C135.702 46 135.49 45.872 135.29 45.792C135.09 45.704 134.882 45.66 134.666 45.66C134.322 45.66 134.05 45.752 133.85 45.936C133.65 46.112 133.55 46.316 133.55 46.548C133.55 46.78 133.646 46.968 133.838 47.112C134.038 47.256 134.342 47.416 134.75 47.592C135.11 47.752 135.394 47.896 135.602 48.024C135.818 48.152 136.002 48.324 136.154 48.54C136.314 48.748 136.394 49.004 136.394 49.308C136.394 49.62 136.31 49.912 136.142 50.184C135.974 50.448 135.726 50.664 135.398 50.832C135.078 50.992 134.694 51.072 134.246 51.072C133.966 51.072 133.67 51.04 133.358 50.976C133.054 50.904 132.77 50.8 132.506 50.664L132.614 49.716L132.734 49.668C132.958 49.892 133.218 50.068 133.514 50.196C133.818 50.316 134.098 50.376 134.354 50.376C134.69 50.376 134.966 50.288 135.182 50.112C135.398 49.928 135.506 49.708 135.506 49.452C135.506 49.212 135.406 49.02 135.206 48.876C135.014 48.732 134.71 48.564 134.294 48.372C133.95 48.22 133.666 48.08 133.442 47.952C133.226 47.824 133.042 47.656 132.89 47.448C132.738 47.232 132.662 46.972 132.662 46.668C132.662 46.348 132.746 46.06 132.914 45.804C133.09 45.548 133.334 45.344 133.646 45.192C133.966 45.04 134.338 44.964 134.762 44.964ZM142.409 45.096L142.349 45.852L141.233 45.768H140.633L140.597 49.128L140.633 51H139.733L139.769 49.2L139.745 45.768H139.145L138.005 45.852L137.933 45.768L138.005 45.024H142.361L142.409 45.096ZM146.458 44.952C147.33 44.952 147.998 45.208 148.462 45.72C148.934 46.232 149.17 46.956 149.17 47.892C149.17 48.908 148.918 49.696 148.414 50.256C147.918 50.808 147.206 51.084 146.278 51.084C145.414 51.084 144.746 50.824 144.274 50.304C143.802 49.776 143.566 49.028 143.566 48.06C143.566 47.068 143.818 46.304 144.322 45.768C144.826 45.224 145.538 44.952 146.458 44.952ZM146.374 45.708C145.742 45.708 145.27 45.888 144.958 46.248C144.654 46.608 144.502 47.176 144.502 47.952C144.502 48.784 144.654 49.388 144.958 49.764C145.262 50.14 145.726 50.328 146.35 50.328C146.99 50.328 147.466 50.144 147.778 49.776C148.09 49.408 148.246 48.832 148.246 48.048C148.246 47.24 148.09 46.648 147.778 46.272C147.474 45.896 147.006 45.708 146.374 45.708ZM154.254 48.588C154.742 49.332 155.282 50.064 155.874 50.784L155.862 50.904C155.526 51.008 155.25 51.068 155.034 51.084L154.878 50.988C154.27 50.068 153.81 49.344 153.498 48.816L152.37 48.828V49.128L152.394 51H151.506L151.542 49.2L151.506 45.024L153.546 45.012C154.178 45.012 154.662 45.16 154.998 45.456C155.342 45.752 155.514 46.18 155.514 46.74C155.514 47.148 155.402 47.512 155.178 47.832C154.962 48.152 154.654 48.404 154.254 48.588ZM152.382 48.084L153.51 48.12C154.222 47.92 154.578 47.484 154.578 46.812C154.578 46.46 154.474 46.196 154.266 46.02C154.058 45.844 153.742 45.748 153.318 45.732L152.394 45.744L152.382 48.084ZM164.539 51H163.735L163.603 49.176L163.279 46.416H163.207L161.491 50.328H160.783L159.163 46.416H159.091L158.779 49.104L158.611 51H157.843L158.503 45.024H159.547L159.847 45.924L161.155 49.14H161.227L162.595 45.876L162.907 45.024H163.927L164.539 51Z" fill="#C4AEA8"/>
<path d="M27.8286 3.6626C27.8286 3.07733 27.6587 2.56763 27.3189 2.11451C26.9791 1.6614 26.5259 1.34045 25.9407 1.17053L23.543 0.453094V0H33.9834V0.453094L31.5291 1.17053C30.9438 1.34045 30.4907 1.66136 30.1508 2.13335C29.811 2.60535 29.6411 3.13403 29.6411 3.7193V36.1923H28.2062L6.13589 5.0031V32.0199C6.13589 32.6052 6.30581 33.1149 6.64564 33.5681C6.98548 34.0212 7.43859 34.3421 8.02386 34.512L10.4216 35.2294V35.6826H0V35.2294L2.45436 34.512C3.03963 34.3421 3.49274 34.0211 3.83257 33.5492C4.17241 33.0772 4.34232 32.5485 4.34232 31.9633V3.62486C4.34232 2.98296 4.15353 2.43544 3.77593 1.96344C3.39834 1.51033 2.90747 1.18938 2.30332 1.01946L0.0188797 0.453094V0H9.43984L27.8475 26.0917V3.6626H27.8286Z" fill="#F0E9E5"/>
<path d="M60.5094 35.2105V35.6636H51.4282V33.2659C50.6164 34.2854 49.4459 35.135 47.9166 35.8147C47.067 36.2301 45.972 36.4188 44.6504 36.4188C41.7996 36.4188 39.5529 35.8524 37.9482 34.7385C36.3434 33.6246 35.5316 32.0576 35.5316 30.0564C35.5316 29.0746 35.8714 28.1118 36.5511 27.1678C37.2307 26.2427 38.2125 25.3931 39.5152 24.6379C40.9123 23.8261 42.6492 23.2031 44.7637 22.7688C46.8782 22.3346 49.106 22.1269 51.4471 22.1269V19.0684C51.4471 16.7839 51.145 15.1603 50.5598 14.1786C49.9556 13.1968 48.8228 12.7059 47.1237 12.7059C45.8965 12.7059 44.9148 12.9892 44.1973 13.5556C43.461 14.1219 43.1023 14.9338 43.1023 16.0288C43.1023 16.5763 43.2911 17.1049 43.6687 17.6336C44.0463 18.1622 44.5372 18.4832 45.1413 18.6342C45.1413 19.2761 44.8015 19.8803 44.1407 20.4089C43.4799 20.9564 42.7247 21.2207 41.8751 21.2207C40.4403 21.2207 39.4019 20.8053 38.7222 19.9557C38.0426 19.1061 37.7027 18.1433 37.7027 17.0483C37.7027 15.9533 38.1558 14.9338 39.0809 14.0842C40.006 13.2346 41.1955 12.5738 42.6492 12.1207C44.1029 11.6676 45.6133 11.441 47.1426 11.441C50.1255 11.441 52.5044 12.1396 54.2602 13.5367C56.016 14.9338 56.8845 16.784 56.8845 19.0873V32.2464C56.8845 32.8883 57.0733 33.4547 57.4697 33.9456C57.8662 34.4364 58.376 34.7574 59.0179 34.8896L60.5471 35.1916L60.5094 35.2105ZM51.4282 23.7506C48.5019 23.7506 46.2741 24.3169 44.7448 25.4497C43.2156 26.5825 42.4604 28.2628 42.4604 30.4717C42.4604 31.7367 42.8191 32.7751 43.5365 33.6058C44.254 34.4365 45.1224 34.8518 46.1419 34.8518C46.8971 34.8518 47.5579 34.6819 48.1621 34.3232C48.7473 33.9645 49.3892 33.4547 50.0689 32.775C50.6731 32.1709 51.145 31.4724 51.4471 30.6794V23.7506H51.4282Z" fill="#F0E9E5"/>
<path d="M76.7081 12.2151V13.7444H69.666V28.9802C69.666 30.7549 70.0436 32.1709 70.7799 33.266C71.5351 34.361 72.498 34.8896 73.6874 34.8896C75.0467 34.8896 76.0851 34.5309 76.8025 33.7946C77.52 33.0583 77.9542 31.9066 78.1241 30.3018H80.0687C79.9366 32.1709 79.2191 33.6624 77.9542 34.7574C76.6893 35.8524 75.0656 36.4188 73.0832 36.4188C70.4401 36.4188 68.3067 35.777 66.683 34.512C65.0783 33.2282 64.2664 31.5857 64.2664 29.5467V13.7444H59.0745V12.2151C60.6038 12.2151 62.0009 11.8375 63.2847 11.0635C64.5685 10.2894 65.5691 9.23212 66.3432 7.87278C67.0984 6.51345 67.4949 5.00309 67.4949 3.34167H69.6849V12.2151H76.727H76.7081Z" fill="#F0E9E5"/>
<path d="M104.518 13.9332C104.121 14.4241 103.933 14.9905 103.933 15.6324V32.2465C103.933 32.8884 104.121 33.4548 104.518 33.9457C104.914 34.4365 105.424 34.7575 106.066 34.8897L107.595 35.1917V35.6448H98.5141V33.2471C97.7023 34.2289 96.7017 35.003 95.5122 35.5694C94.3228 36.1357 93.0579 36.4189 91.7363 36.4189C90.1315 36.4189 88.6778 36.0979 87.3185 35.4749C85.978 34.8519 84.9019 33.9457 84.1089 32.7751C83.316 31.6046 82.9195 30.2642 82.9195 28.7727V15.6135C82.9195 14.9716 82.7307 14.4052 82.3342 13.9144C81.9378 13.4235 81.428 13.1025 80.7861 12.9704L79.2568 12.6683V12.2152H91.6985V12.6683L90.4336 12.9704C89.8295 13.1403 89.3197 13.4613 88.9232 13.9144C88.5268 14.3675 88.338 14.9339 88.338 15.5758V28.2629C88.338 30.3775 88.7156 32.0011 89.4896 33.1528C90.2448 34.3044 91.3209 34.8897 92.6803 34.8897C93.5299 34.8897 94.4172 34.6254 95.3234 34.0967C96.2485 33.5681 97.0037 32.8695 97.6268 32.0011C98.2309 31.1326 98.5519 30.2264 98.5519 29.2824V15.5758C98.5519 14.9339 98.3631 14.3864 97.9666 13.9144C97.5701 13.4613 97.0792 13.1403 96.4562 12.9704L95.1724 12.6683V12.2152H107.614V12.6683L106.085 12.9704C105.443 13.1025 104.914 13.4235 104.537 13.9144L104.518 13.9332Z" fill="#F0E9E5"/>
<path d="M128.552 14.2541C128.967 14.8583 129.156 15.519 129.156 16.2365C129.156 17.0105 128.91 17.7846 128.401 18.5398C128.099 19.0118 127.645 19.3894 127.079 19.6537C126.494 19.918 125.927 20.069 125.342 20.069C124.832 20.069 124.417 19.9747 124.115 19.767C124.247 19.3516 124.323 19.0495 124.323 18.8419C124.323 18.3699 124.172 17.8979 123.888 17.407C123.605 16.935 123.209 16.5574 122.737 16.2931C122.189 15.9533 121.661 15.7834 121.151 15.7834C119.792 15.7834 118.527 17.0483 117.375 19.597V32.2464C117.375 32.8883 117.564 33.4547 117.96 33.9456C118.357 34.4365 118.866 34.7574 119.508 34.8896L121.038 35.1917V35.6448H108.294V35.1917L109.823 34.8896C110.465 34.7574 110.994 34.4365 111.371 33.9456C111.749 33.4547 111.956 32.8883 111.956 32.2464V15.6323C111.956 14.9904 111.768 14.424 111.371 13.9331C110.975 13.4423 110.465 13.1213 109.823 12.9891L108.294 12.6871V12.234H117.375V17.6336C118.149 15.9344 119.225 14.5751 120.566 13.5367C121.906 12.4983 123.247 11.9885 124.568 11.9885C125.493 11.9885 126.324 12.2528 127.06 12.7626C127.645 13.178 128.136 13.6877 128.533 14.2918L128.552 14.2541Z" fill="#F0E9E5"/>
<path d="M154.304 35.2105V35.6636H145.222V33.2659C144.411 34.2854 143.24 35.135 141.711 35.8147C140.861 36.2301 139.766 36.4188 138.445 36.4188C135.594 36.4188 133.347 35.8524 131.742 34.7385C130.138 33.6246 129.326 32.0576 129.326 30.0564C129.326 29.0746 129.666 28.1118 130.345 27.1678C131.025 26.2427 132.007 25.3931 133.309 24.6379C134.706 23.8261 136.443 23.2031 138.558 22.7688C140.672 22.3346 142.9 22.1269 145.241 22.1269V19.0684C145.241 16.7839 144.939 15.1603 144.354 14.1786C143.75 13.1968 142.617 12.7059 140.918 12.7059C139.691 12.7059 138.709 12.9892 137.992 13.5556C137.255 14.1219 136.896 14.9338 136.896 16.0288C136.896 16.5763 137.085 17.1049 137.463 17.6336C137.84 18.1622 138.331 18.4832 138.935 18.6342C138.935 19.2761 138.596 19.8803 137.935 20.4089C137.274 20.9564 136.519 21.2207 135.669 21.2207C134.234 21.2207 133.196 20.8053 132.516 19.9557C131.837 19.1061 131.497 18.1433 131.497 17.0483C131.497 15.9533 131.95 14.9338 132.875 14.0842C133.8 13.2346 134.99 12.5738 136.443 12.1207C137.897 11.6676 139.407 11.441 140.937 11.441C143.92 11.441 146.299 12.1396 148.054 13.5367C149.81 14.9338 150.679 16.784 150.679 19.0873V32.2464C150.679 32.8883 150.867 33.4547 151.264 33.9456C151.66 34.4364 152.17 34.7574 152.812 34.8896L154.341 35.1916L154.304 35.2105ZM145.222 23.7506C142.296 23.7506 140.068 24.3169 138.539 25.4497C137.01 26.5825 136.255 28.2628 136.255 30.4717C136.255 31.7367 136.613 32.7751 137.331 33.6058C138.048 34.4365 138.917 34.8518 139.936 34.8518C140.691 34.8518 141.352 34.6819 141.956 34.3232C142.542 33.9645 143.183 33.4547 143.863 32.775C144.467 32.1709 144.939 31.4724 145.241 30.6794V23.7506H145.222Z" fill="#F0E9E5"/>
<path d="M155.115 34.9085C155.757 34.7763 156.286 34.4553 156.664 33.9645C157.06 33.4736 157.249 32.9072 157.249 32.2653V3.41717C157.249 2.77527 157.06 2.20883 156.664 1.71796C156.267 1.22709 155.757 0.906132 155.115 0.773974L153.586 0.47195V0.0187988H162.667V32.2841C162.667 32.9261 162.856 33.4925 163.253 33.9834C163.649 34.4742 164.159 34.7952 164.801 34.9273L166.33 35.2294V35.6825H153.586V35.2294L155.115 34.9273V34.9085Z" fill="#F0E9E5"/>
<path d="M167.652 34.9085C168.293 34.7763 168.822 34.4553 169.2 33.9645C169.596 33.4736 169.785 32.9072 169.785 32.2653V3.41717C169.785 2.77527 169.596 2.20883 169.2 1.71796C168.803 1.22709 168.293 0.906132 167.652 0.773974L166.122 0.47195V0.0187988H175.203V32.2841C175.203 32.9261 175.392 33.4925 175.789 33.9834C176.185 34.4742 176.695 34.7952 177.337 34.9273L178.866 35.2294V35.6825H166.122V35.2294L167.652 34.9273V34.9085Z" fill="#F0E9E5"/>
<path d="M204.863 12.2152V12.6683L202.881 13.2725C202.239 13.4801 201.597 13.9521 200.993 14.7262C200.389 15.4814 199.841 16.482 199.369 17.7091L190.496 39.9872C189.344 43.1212 188.004 45.7266 186.475 47.8411C184.945 49.9557 182.982 50.994 180.622 50.994C179.262 50.994 178.092 50.5787 177.129 49.748C176.166 48.9172 175.675 47.7468 175.675 46.2553C175.675 44.8959 176.11 43.8575 176.978 43.1779C177.847 42.4793 178.753 42.1394 179.697 42.1394C179.904 42.1394 180.131 42.1772 180.414 42.2339C180.376 42.4038 180.358 42.6492 180.358 42.9513C180.358 43.7065 180.565 44.3295 180.962 44.8581C181.377 45.3868 182.019 45.6511 182.906 45.6511C184.341 45.6511 185.663 44.7826 186.89 43.0268C188.117 41.271 189.099 39.4019 189.854 37.4007C190.062 36.8532 190.156 36.3246 190.156 35.8148C190.156 35.2295 190.024 34.6254 189.741 33.9835L181.792 17.3693C181.188 16.1044 180.395 15.066 179.451 14.2542C178.507 13.4424 177.431 12.9137 176.242 12.6683V12.2152H188.986V12.6683C188.344 12.8005 187.834 13.1214 187.456 13.6123C187.079 14.1032 186.89 14.6884 186.89 15.3681C186.89 15.9156 187.003 16.4442 187.249 16.954L193.101 29.2447L198.048 16.8596C198.218 16.4254 198.293 16.0478 198.293 15.7457C198.293 15.1415 198.104 14.5751 197.727 14.0654C197.349 13.5556 196.839 13.1969 196.198 12.9892L195.178 12.6872V12.2341H204.863V12.2152Z" fill="#F0E9E5"/>
<path d="M180.603 51.0128C173.504 50.6164 172.334 40.4213 180.546 38.6844C189.911 36.702 198.199 41.2709 213.133 48.8794C227.576 56.2614 243.019 60.8303 257.103 46.4628C257.103 46.4628 257.236 46.1796 257.198 45.6321C257.16 45.0846 257.141 44.5182 257.783 44.4805C258.425 44.4427 258.689 45.4244 258.085 46.0852C240.754 64.7572 222.856 56.4313 207.96 48.7095C190.269 39.534 184.908 40.9311 182.264 42.0639C180.848 42.668 180.074 44.6315 181.49 45.3489C184.266 46.7649 185.908 45.4056 187.777 43.5365" fill="#F0E9E5"/>
</svg>
