<svg width="31" height="31" viewBox="0 0 31 31" fill="none" xmlns="http://www.w3.org/2000/svg">
<path d="M31 3.32143V27.6786C31 29.5123 29.5123 31 27.6786 31H10.6839C11.3621 29.8652 12.2339 28.2321 12.5799 26.8967C12.7875 26.1009 13.6386 22.8556 13.6386 22.8556C14.1922 23.9143 15.8114 24.8069 17.5344 24.8069C22.6618 24.8069 26.35 20.0946 26.35 14.2406C26.35 8.62879 21.7692 4.42857 15.8737 4.42857C8.53884 4.42857 4.65 9.34844 4.65 14.7112C4.65 17.2022 5.97857 20.3022 8.09598 21.2917C8.4212 21.444 8.58728 21.3748 8.66339 21.0634C8.71875 20.8281 9.00937 19.6725 9.13393 19.1397C9.17545 18.9667 9.15469 18.8214 9.01629 18.6554C8.31741 17.8042 7.75 16.2404 7.75 14.7804C7.75 11.0299 10.5871 7.40402 15.4239 7.40402C19.5964 7.40402 22.5234 10.248 22.5234 14.3167C22.5234 18.9114 20.2054 22.0944 17.1815 22.0944C15.5138 22.0944 14.2683 20.7174 14.6627 19.0221C15.1402 17.0016 16.0674 14.8219 16.0674 13.3618C16.0674 9.69442 10.8431 10.1996 10.8431 15.0917C10.8431 16.5933 11.3482 17.6174 11.3482 17.6174C9.17545 26.8067 8.85022 26.9243 9.3 30.9446L9.45223 31H3.32143C1.48772 31 0 29.5123 0 27.6786V3.32143C0 1.48772 1.48772 0 3.32143 0H27.6786C29.5123 0 31 1.48772 31 3.32143V3.32143Z" fill="black"/>
</svg>
