<svg width="42" height="13" viewBox="0 0 42 13" fill="none" xmlns="http://www.w3.org/2000/svg">
<path d="M4.088 11.14C3.374 11.14 2.74867 11.0233 2.212 10.79C1.68 10.5567 1.26467 10.2067 0.966 9.74C0.667333 9.27333 0.511 8.69 0.497 7.99H1.778C1.792 8.438 1.89933 8.80667 2.1 9.096C2.30067 9.38533 2.576 9.60233 2.926 9.747C3.28067 9.887 3.69133 9.957 4.158 9.957C4.66667 9.957 5.075 9.89167 5.383 9.761C5.69567 9.63033 5.92433 9.453 6.069 9.229C6.21367 9.00033 6.286 8.746 6.286 8.466C6.286 8.12067 6.188 7.836 5.992 7.612C5.80067 7.38333 5.51833 7.18267 5.145 7.01C4.77633 6.83267 4.32833 6.653 3.801 6.471C3.241 6.275 2.744 6.04167 2.31 5.771C1.88067 5.49567 1.54233 5.16433 1.295 4.777C1.04767 4.385 0.924 3.923 0.924 3.391C0.924 2.50433 1.211 1.82767 1.785 1.361C2.36367 0.894333 3.14533 0.660999 4.13 0.660999C4.788 0.660999 5.33167 0.765999 5.761 0.976C6.195 1.186 6.531 1.49867 6.769 1.914C7.007 2.32467 7.16333 2.83567 7.238 3.447H5.95C5.908 3.125 5.81933 2.845 5.684 2.607C5.54867 2.36433 5.35033 2.17767 5.089 2.047C4.83233 1.91167 4.48933 1.844 4.06 1.844C3.47667 1.844 3.02167 1.96767 2.695 2.215C2.373 2.46233 2.212 2.83333 2.212 3.328C2.212 3.622 2.27033 3.87867 2.387 4.098C2.50833 4.31733 2.723 4.525 3.031 4.721C3.339 4.917 3.78233 5.127 4.361 5.351C4.781 5.51433 5.18467 5.67767 5.572 5.841C5.95933 6.00433 6.30467 6.19333 6.608 6.408C6.91133 6.618 7.15167 6.88167 7.329 7.199C7.50633 7.51167 7.595 7.90367 7.595 8.375C7.60433 9.26167 7.31033 9.94533 6.713 10.426C6.11567 10.902 5.24067 11.14 4.088 11.14ZM9.48883 11V0.821999H15.6488V2.047H10.2238L10.7908 1.424V5.477L10.2238 5.099H15.2848V6.31H10.4268L10.7908 5.897V10.419L10.2238 9.761H15.7468V11H9.48883ZM20.2622 12.12V0.122H21.4522V12.12H20.2622Z" fill="#F0E9E5"/>
<path d="M26.6334 11V0.821999H32.7934V2.047H27.3684L27.9354 1.424V5.477L27.3684 5.099H32.4294V6.31H27.5714L27.9354 5.897V10.419L27.3684 9.761H32.8914V11H26.6334ZM34.5494 11V0.821999H36.1314L39.6314 7.178L40.7724 9.628H40.8284L40.6114 7.136V0.821999H41.9204V11H40.3384L36.8664 4.686L35.7464 2.257H35.6834L35.8584 4.791V11H34.5494Z" fill="#344258"/>
</svg>
