<svg width="31" height="31" viewBox="0 0 31 31" fill="none" xmlns="http://www.w3.org/2000/svg">
<path d="M29.45 0H1.55C1.13891 0 0.744666 0.163303 0.453984 0.453984C0.163303 0.744666 0 1.13891 0 1.55V29.45C0 29.8611 0.163303 30.2553 0.453984 30.546C0.744666 30.8367 1.13891 31 1.55 31H29.45C29.8611 31 30.2553 30.8367 30.546 30.546C30.8367 30.2553 31 29.8611 31 29.45V1.55C31 1.13891 30.8367 0.744666 30.546 0.453984C30.2553 0.163303 29.8611 0 29.45 0V0ZM24.3644 13.5238C24.1955 13.5408 24.025 13.5485 23.8561 13.5501C22.9364 13.5513 22.031 13.3233 21.2216 12.8868C20.4121 12.4503 19.7242 11.819 19.22 11.0499V19.5641C19.2203 20.8092 18.8514 22.0264 18.1598 23.0617C17.4683 24.0971 16.4852 24.9041 15.335 25.3808C14.1847 25.8574 12.919 25.9822 11.6978 25.7393C10.4767 25.4965 9.35493 24.897 8.47453 24.0166C7.59413 23.1362 6.9946 22.0144 6.75177 20.7933C6.50895 19.5721 6.63373 18.3064 7.11034 17.1561C7.58695 16.0059 8.39398 15.0228 9.42935 14.3313C10.4647 13.6397 11.6819 13.2708 12.927 13.2711C13.0587 13.2711 13.1858 13.2835 13.316 13.2912V16.3912C12.8824 16.3387 12.4426 16.3754 12.0236 16.4991C11.6047 16.6228 11.2154 16.8309 10.8798 17.1105C10.5442 17.3901 10.2694 17.7355 10.0721 18.1252C9.8749 18.515 9.75944 18.941 9.73287 19.377C9.7063 19.813 9.76918 20.2498 9.91764 20.6607C10.0661 21.0715 10.297 21.4476 10.5961 21.766C10.8953 22.0843 11.2564 22.3381 11.6572 22.5117C12.0581 22.6853 12.4902 22.7752 12.927 22.7757C13.7891 22.7913 14.6228 22.4679 15.2489 21.8752C15.875 21.2824 16.2435 20.4676 16.275 19.6059L16.306 5.1429H19.2727C19.4082 6.43165 19.9924 7.63177 20.9231 8.53337C21.8539 9.43497 23.072 9.98066 24.3644 10.075V13.5238Z" fill="black"/>
</svg>
