<svg width="31" height="31" viewBox="0 0 31 31" fill="none" xmlns="http://www.w3.org/2000/svg">
<path d="M27.6786 0H3.32143C1.48772 0 0 1.48772 0 3.32143V27.6786C0 29.5123 1.48772 31 3.32143 31H27.6786C29.5123 31 31 29.5123 31 27.6786V3.32143C31 1.48772 29.5123 0 27.6786 0ZM24.2949 10.9884C24.3087 11.1821 24.3087 11.3828 24.3087 11.5766C24.3087 17.5759 19.7417 24.4886 11.3967 24.4886C8.82254 24.4886 6.43527 23.7413 4.42857 22.4542C4.79531 22.4958 5.14821 22.5096 5.52187 22.5096C7.64621 22.5096 9.59754 21.79 11.1545 20.5721C9.16161 20.5306 7.48705 19.2228 6.91272 17.4237C7.61161 17.5275 8.24129 17.5275 8.96094 17.3406C6.88504 16.9185 5.32812 15.0917 5.32812 12.8844V12.829C5.93013 13.1681 6.63594 13.3757 7.37634 13.4033C6.75387 12.9893 6.24358 12.4276 5.89102 11.7683C5.53845 11.1091 5.35458 10.3728 5.3558 9.62522C5.3558 8.78103 5.57723 8.00603 5.97165 7.33482C8.2067 10.0888 11.5627 11.8879 15.327 12.0817C14.6835 9.00246 16.9877 6.50446 19.7556 6.50446C21.0634 6.50446 22.2397 7.05112 23.0701 7.93683C24.0942 7.74308 25.0768 7.3625 25.9487 6.84353C25.6096 7.89531 24.8969 8.78103 23.9558 9.34152C24.8692 9.24464 25.7549 8.98862 26.5714 8.63571C25.9556 9.54219 25.1806 10.3449 24.2949 10.9884Z" fill="black"/>
</svg>
