<svg width="44" height="31" viewBox="0 0 44 31" fill="none" xmlns="http://www.w3.org/2000/svg">
<path d="M43.0806 4.84067C42.5745 2.93527 41.0836 1.43464 39.1905 0.925385C35.7592 0 22 0 22 0C22 0 8.24089 0 4.80949 0.925385C2.91642 1.43472 1.42546 2.93527 0.919423 4.84067C0 8.2943 0 15.5 0 15.5C0 15.5 0 22.7057 0.919423 26.1593C1.42546 28.0647 2.91642 29.5028 4.80949 30.0121C8.24089 30.9375 22 30.9375 22 30.9375C22 30.9375 35.7591 30.9375 39.1905 30.0121C41.0836 29.5028 42.5745 28.0647 43.0806 26.1593C44 22.7057 44 15.5 44 15.5C44 15.5 44 8.2943 43.0806 4.84067V4.84067ZM17.5 22.0422V8.95776L28.9999 15.5002L17.5 22.0422Z" fill="black"/>
</svg>
