<svg width="24" height="23.2" viewBox="0 0 24 24" fill="none" xmlns="http://www.w3.org/2000/svg">
<path fill-rule="evenodd" clip-rule="evenodd" d="M16.2072 8.6438C16.2072 11.0307 14.2721 12.9657 11.8853 12.9657C9.49834 12.9657 7.56335 11.0307 7.56335 8.6438C7.56335 6.25688 9.49834 4.3219 11.8853 4.3219C14.2721 4.3219 16.2072 6.25688 16.2072 8.6438ZM14.0462 8.6438C14.0462 9.8373 13.0788 10.8048 11.8853 10.8048C10.6918 10.8048 9.72431 9.8373 9.72431 8.6438C9.72431 7.45034 10.6918 6.48285 11.8853 6.48285C13.0788 6.48285 14.0462 7.45034 14.0462 8.6438Z" fill="#F0E9E5"/>
<path fill-rule="evenodd" clip-rule="evenodd" d="M11.8852 0C5.32121 0 0 5.32121 0 11.8852C0 18.4492 5.32121 23.7705 11.8852 23.7705C18.4492 23.7705 23.7705 18.4492 23.7705 11.8852C23.7705 5.32121 18.4492 0 11.8852 0ZM2.16095 11.8852C2.16095 14.1437 2.93085 16.2223 4.22248 17.8729C5.99929 15.5469 8.80185 14.0462 11.9549 14.0462C15.067 14.0462 17.8378 15.5082 19.6177 17.7828C20.8672 16.147 21.6095 14.1028 21.6095 11.8852C21.6095 6.51467 17.2559 2.16095 11.8852 2.16095C6.51467 2.16095 2.16095 6.51467 2.16095 11.8852ZM11.8852 21.6095C9.56197 21.6095 7.42898 20.7947 5.75642 19.4354C7.12414 17.4834 9.39048 16.2071 11.9549 16.2071C14.4875 16.2071 16.7293 17.452 18.1021 19.3631C16.4166 20.7658 14.2494 21.6095 11.8852 21.6095Z" fill="#F0E9E5"/>
</svg>
